<?xml version="1.0" standalone="no"?>
<!DOCTYPE svg PUBLIC "-//W3C//DTD SVG 20010904//EN"
 "http://www.w3.org/TR/2001/REC-SVG-20010904/DTD/svg10.dtd">
<svg version="1.0" xmlns="http://www.w3.org/2000/svg"
 width="320.000000pt" height="320.000000pt" viewBox="0 0 320.000000 320.000000"
 preserveAspectRatio="xMidYMid meet">
<metadata>
Created by potrace 1.11, written by Peter Selinger 2001-2013
</metadata>
<g transform="translate(0.000000,320.000000) scale(0.100000,-0.100000)"
fill="#000000" stroke="none">
<path d="M1300 3000 l0 -100 -25 0 c-23 0 -25 -3 -25 -50 l0 -50 50 0 50 0 0
50 0 50 75 0 75 0 0 -50 0 -50 -50 0 -50 0 0 -50 0 -50 -100 0 -100 0 0 -50 0
-50 -75 0 -75 0 0 50 c0 47 2 50 25 50 23 0 25 3 25 50 l0 50 50 0 50 0 0 50
0 50 -100 0 -100 0 0 -50 0 -50 -50 0 -50 0 0 -50 0 -50 -50 0 -50 0 0 -250 0
-250 -75 0 -75 0 0 50 0 50 50 0 50 0 0 100 0 100 -50 0 -50 0 0 -100 0 -100
-50 0 -50 0 0 50 c0 47 2 50 25 50 23 0 25 3 25 50 l0 50 -100 0 -100 0 0 -50
0 -50 -50 0 -50 0 0 -150 0 -150 50 0 50 0 0 -50 c0 -47 -2 -50 -25 -50 -23 0
-25 -3 -25 -50 l0 -50 -125 0 -125 0 0 -50 0 -50 50 0 50 0 0 -100 0 -100 50
0 50 0 0 -50 0 -50 50 0 50 0 0 -50 0 -50 50 0 50 0 0 -150 0 -150 -50 0 -50
0 0 50 0 50 -50 0 -50 0 0 -100 0 -100 50 0 50 0 0 -50 0 -50 250 0 250 0 0
-150 0 -150 -150 0 -150 0 0 -50 0 -50 50 0 50 0 0 -50 0 -50 200 0 200 0 0
50 0 50 50 0 50 0 0 50 0 50 50 0 50 0 0 -50 0 -50 50 0 50 0 0 -50 0 -50 -50
0 -50 0 0 -100 0 -100 150 0 150 0 0 50 0 50 50 0 50 0 0 100 0 100 150 0 150
0 0 50 0 50 100 0 100 0 0 -100 0 -100 -50 0 -50 0 0 -50 0 -50 100 0 100 0 0
50 0 50 100 0 100 0 0 100 0 100 -50 0 -50 0 0 50 0 50 -50 0 -50 0 0 100 0
100 50 0 50 0 0 -50 0 -50 50 0 50 0 0 50 0 50 -50 0 -50 0 0 50 0 50 100 0
100 0 0 -200 0 -200 50 0 50 0 0 50 0 50 50 0 50 0 0 50 0 50 50 0 50 0 0 100
0 100 -50 0 -50 0 0 50 0 50 -50 0 -50 0 0 200 0 200 50 0 50 0 0 -150 0 -150
50 0 50 0 0 50 0 50 50 0 50 0 0 200 0 200 -100 0 -100 0 0 50 0 50 100 0 100
0 0 50 0 50 -100 0 -100 0 0 -50 0 -50 -50 0 -50 0 0 100 0 100 -50 0 -50 0 0
100 0 100 50 0 50 0 0 -50 0 -50 100 0 100 0 0 -50 0 -50 50 0 50 0 0 100 0
100 -50 0 -50 0 0 50 0 50 -50 0 -50 0 0 50 0 50 -150 0 -150 0 0 -50 0 -50
-75 0 -75 0 0 150 0 150 75 0 75 0 0 50 0 50 50 0 50 0 0 50 0 50 -150 0 -150
0 0 50 0 50 100 0 100 0 0 50 0 50 -100 0 -100 0 0 -50 0 -50 -50 0 -50 0 0
-50 0 -50 -50 0 -50 0 0 -50 0 -50 -125 0 -125 0 0 50 0 50 50 0 50 0 0 50 0
50 75 0 75 0 0 50 0 50 -100 0 -100 0 0 -50 0 -50 -200 0 -200 0 0 50 0 50
-50 0 -50 0 0 50 0 50 -50 0 -50 0 0 -100z m-800 -1150 l0 -150 -25 0 c-23 0
-25 3 -25 50 0 47 -2 50 -25 50 -23 0 -25 3 -25 50 0 47 2 50 25 50 23 0 25 3
25 50 0 47 2 50 25 50 l25 0 0 -150z"/>
<path d="M600 2650 l0 -50 50 0 50 0 0 50 0 50 -50 0 -50 0 0 -50z"/>
<path d="M2700 2650 l0 -50 -50 0 -50 0 0 -50 0 -50 50 0 50 0 0 50 0 50 50 0
50 0 0 50 0 50 -50 0 -50 0 0 -50z"/>
<path d="M100 1350 l0 -50 100 0 100 0 0 50 0 50 -100 0 -100 0 0 -50z"/>
<path d="M400 700 l0 -100 -50 0 -50 0 0 -50 0 -50 50 0 50 0 0 50 0 50 50 0
50 0 0 100 0 100 -50 0 -50 0 0 -100z"/>
<path d="M2600 450 l0 -50 50 0 50 0 0 -50 0 -50 50 0 50 0 0 100 0 100 -100
0 -100 0 0 -50z"/>
<path d="M1100 250 l0 -50 -50 0 -50 0 0 -50 0 -50 50 0 50 0 0 50 0 50 50 0
50 0 0 50 0 50 -50 0 -50 0 0 -50z"/>
<path d="M1800 250 l0 -50 50 0 50 0 0 -50 0 -50 50 0 50 0 0 100 0 100 -100
0 -100 0 0 -50z"/>
</g>
</svg>
